<mxfile host="app.diagrams.net" agent="Mozilla/5.0 (Windows NT 10.0; Win64; x64) AppleWebKit/537.36 (KHTML, like Gecko) Chrome/134.0.0.0 Safari/537.36" version="26.1.3">
  <diagram name="第 1 页" id="9YLV0dZN2v6p_cMBPQFm">
    <mxGraphModel dx="1991" dy="212" grid="1" gridSize="10" guides="1" tooltips="1" connect="1" arrows="1" fold="1" page="1" pageScale="1" pageWidth="827" pageHeight="1169" math="0" shadow="0">
      <root>
        <mxCell id="0" />
        <mxCell id="1" parent="0" />
        <mxCell id="1BbPbzM548uHhZmUYeWM-2" value="" style="whiteSpace=wrap;html=1;fillColor=#ffe6cc;strokeColor=#d79b00;shadow=1;" vertex="1" parent="1">
          <mxGeometry x="-560" y="265" width="280" height="170" as="geometry" />
        </mxCell>
        <mxCell id="fvyCDAxteqVoHiRzkFGb-2" value="" style="rounded=0;whiteSpace=wrap;html=1;fillColor=#E6FFCC;shadow=0;" parent="1" vertex="1">
          <mxGeometry x="-450" y="355" width="50" height="50" as="geometry" />
        </mxCell>
        <mxCell id="fvyCDAxteqVoHiRzkFGb-3" value="" style="rounded=0;whiteSpace=wrap;html=1;fillColor=#E6FFCC;shadow=0;" parent="1" vertex="1">
          <mxGeometry x="-400" y="355" width="50" height="50" as="geometry" />
        </mxCell>
        <mxCell id="fvyCDAxteqVoHiRzkFGb-4" value="" style="rounded=0;whiteSpace=wrap;html=1;fillColor=#E6FFCC;shadow=0;" parent="1" vertex="1">
          <mxGeometry x="-400" y="305" width="50" height="50" as="geometry" />
        </mxCell>
        <mxCell id="1BbPbzM548uHhZmUYeWM-1" value="RightToUp" style="text;strokeColor=none;align=center;fillColor=none;html=1;verticalAlign=middle;whiteSpace=wrap;rounded=0;fontSize=8;labelBackgroundColor=none;labelBorderColor=none;textShadow=0;fontColor=#666666;" vertex="1" parent="1">
          <mxGeometry x="-555" y="265" width="45" height="20" as="geometry" />
        </mxCell>
        <mxCell id="1BbPbzM548uHhZmUYeWM-3" value="a" style="text;html=1;align=center;verticalAlign=middle;whiteSpace=wrap;rounded=0;" vertex="1" parent="1">
          <mxGeometry x="-410" y="405" width="20" height="10" as="geometry" />
        </mxCell>
        <mxCell id="1BbPbzM548uHhZmUYeWM-4" value="b" style="text;html=1;align=center;verticalAlign=middle;whiteSpace=wrap;rounded=0;" vertex="1" parent="1">
          <mxGeometry x="-360" y="405" width="20" height="10" as="geometry" />
        </mxCell>
        <mxCell id="1BbPbzM548uHhZmUYeWM-5" value="c" style="text;html=1;align=center;verticalAlign=middle;whiteSpace=wrap;rounded=0;" vertex="1" parent="1">
          <mxGeometry x="-350" y="345" width="10" height="10" as="geometry" />
        </mxCell>
        <mxCell id="1BbPbzM548uHhZmUYeWM-6" value="d" style="text;html=1;align=center;verticalAlign=middle;whiteSpace=wrap;rounded=0;" vertex="1" parent="1">
          <mxGeometry x="-410" y="345" width="10" height="10" as="geometry" />
        </mxCell>
        <mxCell id="1BbPbzM548uHhZmUYeWM-7" value="&amp;nbsp;▲d,c,b" style="text;strokeColor=none;align=center;fillColor=none;html=1;verticalAlign=middle;whiteSpace=wrap;rounded=0;" vertex="1" parent="1">
          <mxGeometry x="-350" y="305" width="60" height="20" as="geometry" />
        </mxCell>
        <mxCell id="1BbPbzM548uHhZmUYeWM-8" value="▲&amp;nbsp;d,b,a" style="text;strokeColor=none;align=center;fillColor=none;html=1;verticalAlign=middle;whiteSpace=wrap;rounded=0;" vertex="1" parent="1">
          <mxGeometry x="-350" y="355" width="60" height="20" as="geometry" />
        </mxCell>
        <mxCell id="1BbPbzM548uHhZmUYeWM-17" value="" style="endArrow=none;html=1;rounded=0;entryX=0.5;entryY=0;entryDx=0;entryDy=0;exitX=0.006;exitY=0.027;exitDx=0;exitDy=0;exitPerimeter=0;" edge="1" parent="1" source="fvyCDAxteqVoHiRzkFGb-3" target="1BbPbzM548uHhZmUYeWM-4">
          <mxGeometry width="50" height="50" relative="1" as="geometry">
            <mxPoint x="-390" y="415" as="sourcePoint" />
            <mxPoint x="-340" y="365" as="targetPoint" />
          </mxGeometry>
        </mxCell>
        <mxCell id="1BbPbzM548uHhZmUYeWM-22" value="" style="endArrow=none;html=1;rounded=0;exitX=-0.006;exitY=0.8;exitDx=0;exitDy=0;exitPerimeter=0;fillColor=#e1d5e7;strokeColor=#9673a6;" edge="1" parent="1" source="fvyCDAxteqVoHiRzkFGb-3">
          <mxGeometry width="50" height="50" relative="1" as="geometry">
            <mxPoint x="-400" y="385" as="sourcePoint" />
            <mxPoint x="-360" y="395" as="targetPoint" />
          </mxGeometry>
        </mxCell>
        <mxCell id="1BbPbzM548uHhZmUYeWM-23" value="" style="endArrow=none;html=1;rounded=0;exitX=0.8;exitY=-0.004;exitDx=0;exitDy=0;exitPerimeter=0;fillColor=#e1d5e7;strokeColor=#9673a6;" edge="1" parent="1" source="fvyCDAxteqVoHiRzkFGb-3">
          <mxGeometry width="50" height="50" relative="1" as="geometry">
            <mxPoint x="-390" y="405" as="sourcePoint" />
            <mxPoint x="-360" y="395" as="targetPoint" />
          </mxGeometry>
        </mxCell>
        <mxCell id="1BbPbzM548uHhZmUYeWM-24" value="" style="endArrow=none;html=1;rounded=0;exitX=1;exitY=0.5;exitDx=0;exitDy=0;fillColor=#e1d5e7;strokeColor=#9673a6;" edge="1" parent="1">
          <mxGeometry width="50" height="50" relative="1" as="geometry">
            <mxPoint x="-545" y="295" as="sourcePoint" />
            <mxPoint x="-555" y="295" as="targetPoint" />
          </mxGeometry>
        </mxCell>
        <mxCell id="1BbPbzM548uHhZmUYeWM-25" value="边缘线" style="text;strokeColor=none;align=left;fillColor=none;html=1;verticalAlign=middle;whiteSpace=wrap;rounded=0;fontSize=3;" vertex="1" parent="1">
          <mxGeometry x="-545" y="295" width="20" as="geometry" />
        </mxCell>
        <mxCell id="1BbPbzM548uHhZmUYeWM-27" value="&amp;nbsp;0,1,2" style="text;strokeColor=#6c8ebf;align=center;fillColor=#dae8fc;html=1;verticalAlign=middle;whiteSpace=wrap;rounded=0;fontSize=8;labelBackgroundColor=none;labelBorderColor=none;textShadow=0;" vertex="1" parent="1">
          <mxGeometry x="-530" y="335" width="35" height="10" as="geometry" />
        </mxCell>
        <mxCell id="1BbPbzM548uHhZmUYeWM-28" value="&amp;nbsp;0,0" style="text;strokeColor=#6c8ebf;align=center;fillColor=#dae8fc;verticalAlign=middle;rounded=0;fontSize=8;labelBackgroundColor=none;labelBorderColor=none;textShadow=0;whiteSpace=wrap;html=1;" vertex="1" parent="1">
          <mxGeometry x="-530" y="345" width="35" height="10" as="geometry" />
        </mxCell>
        <mxCell id="1BbPbzM548uHhZmUYeWM-29" value="&amp;nbsp;0,1" style="text;strokeColor=#6c8ebf;align=center;fillColor=#dae8fc;verticalAlign=middle;rounded=0;fontSize=8;labelBackgroundColor=none;labelBorderColor=none;textShadow=0;whiteSpace=wrap;html=1;" vertex="1" parent="1">
          <mxGeometry x="-530" y="355" width="35" height="10" as="geometry" />
        </mxCell>
        <mxCell id="1BbPbzM548uHhZmUYeWM-30" value="&amp;nbsp;1,1" style="text;strokeColor=#6c8ebf;align=center;fillColor=#dae8fc;verticalAlign=middle;rounded=0;fontSize=8;labelBackgroundColor=none;labelBorderColor=none;textShadow=0;whiteSpace=wrap;html=1;" vertex="1" parent="1">
          <mxGeometry x="-530" y="365" width="35" height="10" as="geometry" />
        </mxCell>
        <mxCell id="1BbPbzM548uHhZmUYeWM-31" value="uv:" style="text;strokeColor=#9673a6;align=center;fillColor=#e1d5e7;verticalAlign=middle;rounded=0;fontSize=8;labelBackgroundColor=none;labelBorderColor=none;textShadow=0;whiteSpace=wrap;html=1;" vertex="1" parent="1">
          <mxGeometry x="-555" y="345" width="25" height="10" as="geometry" />
        </mxCell>
        <mxCell id="1BbPbzM548uHhZmUYeWM-32" value="t:" style="text;strokeColor=#9673a6;align=center;fillColor=#e1d5e7;html=1;verticalAlign=middle;whiteSpace=wrap;rounded=0;fontSize=8;labelBackgroundColor=none;labelBorderColor=none;textShadow=0;" vertex="1" parent="1">
          <mxGeometry x="-555" y="335" width="25" height="10" as="geometry" />
        </mxCell>
        <mxCell id="1BbPbzM548uHhZmUYeWM-63" value="" style="whiteSpace=wrap;html=1;fillColor=#ffe6cc;strokeColor=#d79b00;shadow=1;" vertex="1" parent="1">
          <mxGeometry x="-460" y="460" width="380" height="170" as="geometry" />
        </mxCell>
        <mxCell id="1BbPbzM548uHhZmUYeWM-64" value="" style="rounded=0;whiteSpace=wrap;html=1;fillColor=#E6FFCC;shadow=0;" vertex="1" parent="1">
          <mxGeometry x="-359.85" y="520" width="50" height="50" as="geometry" />
        </mxCell>
        <mxCell id="1BbPbzM548uHhZmUYeWM-65" value="" style="rounded=0;whiteSpace=wrap;html=1;fillColor=#E6FFCC;shadow=0;" vertex="1" parent="1">
          <mxGeometry x="-259.85" y="520" width="49.85" height="50" as="geometry" />
        </mxCell>
        <mxCell id="1BbPbzM548uHhZmUYeWM-66" value="" style="rounded=0;whiteSpace=wrap;html=1;fillColor=#E6FFCC;shadow=0;" vertex="1" parent="1">
          <mxGeometry x="-309.85" y="520" width="49.85" height="50" as="geometry" />
        </mxCell>
        <mxCell id="1BbPbzM548uHhZmUYeWM-67" value="RighToRight" style="text;strokeColor=none;align=center;fillColor=none;html=1;verticalAlign=middle;whiteSpace=wrap;rounded=0;fontSize=8;labelBackgroundColor=none;labelBorderColor=none;textShadow=0;fontColor=#666666;" vertex="1" parent="1">
          <mxGeometry x="-455" y="470" width="45" height="20" as="geometry" />
        </mxCell>
        <mxCell id="1BbPbzM548uHhZmUYeWM-68" value="a" style="text;html=1;align=center;verticalAlign=middle;whiteSpace=wrap;rounded=0;" vertex="1" parent="1">
          <mxGeometry x="-319.85" y="510" width="20" height="10" as="geometry" />
        </mxCell>
        <mxCell id="1BbPbzM548uHhZmUYeWM-69" value="b" style="text;html=1;align=center;verticalAlign=middle;whiteSpace=wrap;rounded=0;" vertex="1" parent="1">
          <mxGeometry x="-319.85" y="570" width="20" height="10" as="geometry" />
        </mxCell>
        <mxCell id="1BbPbzM548uHhZmUYeWM-70" value="c" style="text;html=1;align=center;verticalAlign=middle;whiteSpace=wrap;rounded=0;" vertex="1" parent="1">
          <mxGeometry x="-215.00000000000003" y="575" width="10" height="10" as="geometry" />
        </mxCell>
        <mxCell id="1BbPbzM548uHhZmUYeWM-71" value="d" style="text;html=1;align=center;verticalAlign=middle;whiteSpace=wrap;rounded=0;" vertex="1" parent="1">
          <mxGeometry x="-215.00000000000003" y="510" width="10" height="10" as="geometry" />
        </mxCell>
        <mxCell id="1BbPbzM548uHhZmUYeWM-72" value="&amp;nbsp;▲a,d,c" style="text;strokeColor=none;align=center;fillColor=none;html=1;verticalAlign=middle;whiteSpace=wrap;rounded=0;" vertex="1" parent="1">
          <mxGeometry x="-150" y="510" width="60" height="20" as="geometry" />
        </mxCell>
        <mxCell id="1BbPbzM548uHhZmUYeWM-73" value="▲ a,c,d" style="text;strokeColor=none;align=center;fillColor=none;html=1;verticalAlign=middle;whiteSpace=wrap;rounded=0;" vertex="1" parent="1">
          <mxGeometry x="-150" y="555" width="60" height="20" as="geometry" />
        </mxCell>
        <mxCell id="1BbPbzM548uHhZmUYeWM-74" value="" style="endArrow=none;html=1;rounded=0;entryX=0;entryY=1;entryDx=0;entryDy=0;exitX=0;exitY=0;exitDx=0;exitDy=0;" edge="1" parent="1" target="1BbPbzM548uHhZmUYeWM-66">
          <mxGeometry width="50" height="50" relative="1" as="geometry">
            <mxPoint x="-210.4500000000001" y="520" as="sourcePoint" />
            <mxPoint x="-260.1499999999999" y="570" as="targetPoint" />
          </mxGeometry>
        </mxCell>
        <mxCell id="1BbPbzM548uHhZmUYeWM-75" value="" style="endArrow=none;html=1;rounded=0;fillColor=#e1d5e7;strokeColor=#9673a6;exitX=1.01;exitY=0.791;exitDx=0;exitDy=0;exitPerimeter=0;" edge="1" parent="1" source="1BbPbzM548uHhZmUYeWM-64">
          <mxGeometry width="50" height="50" relative="1" as="geometry">
            <mxPoint x="-260.14999999999975" y="560.0000000000001" as="sourcePoint" />
            <mxPoint x="-210.50000000000003" y="559.65" as="targetPoint" />
          </mxGeometry>
        </mxCell>
        <mxCell id="1BbPbzM548uHhZmUYeWM-77" value="" style="endArrow=none;html=1;rounded=0;exitX=1;exitY=0.5;exitDx=0;exitDy=0;fillColor=#e1d5e7;strokeColor=#9673a6;" edge="1" parent="1">
          <mxGeometry width="50" height="50" relative="1" as="geometry">
            <mxPoint x="-445" y="500" as="sourcePoint" />
            <mxPoint x="-455" y="500" as="targetPoint" />
          </mxGeometry>
        </mxCell>
        <mxCell id="1BbPbzM548uHhZmUYeWM-78" value="边缘线" style="text;strokeColor=none;align=left;fillColor=none;html=1;verticalAlign=middle;whiteSpace=wrap;rounded=0;fontSize=3;" vertex="1" parent="1">
          <mxGeometry x="-445" y="500" width="20" as="geometry" />
        </mxCell>
        <mxCell id="1BbPbzM548uHhZmUYeWM-79" value="&amp;nbsp;0,2,3" style="text;strokeColor=#6c8ebf;align=center;fillColor=#dae8fc;html=1;verticalAlign=middle;whiteSpace=wrap;rounded=0;fontSize=8;labelBackgroundColor=none;labelBorderColor=none;textShadow=0;" vertex="1" parent="1">
          <mxGeometry x="-430" y="540" width="35" height="10" as="geometry" />
        </mxCell>
        <mxCell id="1BbPbzM548uHhZmUYeWM-80" value="&amp;nbsp;1,0" style="text;strokeColor=#6c8ebf;align=center;fillColor=#dae8fc;verticalAlign=middle;rounded=0;fontSize=8;labelBackgroundColor=none;labelBorderColor=none;textShadow=0;whiteSpace=wrap;html=1;" vertex="1" parent="1">
          <mxGeometry x="-430" y="550" width="35" height="10" as="geometry" />
        </mxCell>
        <mxCell id="1BbPbzM548uHhZmUYeWM-81" value="&amp;nbsp;0,0" style="text;strokeColor=#6c8ebf;align=center;fillColor=#dae8fc;verticalAlign=middle;rounded=0;fontSize=8;labelBackgroundColor=none;labelBorderColor=none;textShadow=0;whiteSpace=wrap;html=1;" vertex="1" parent="1">
          <mxGeometry x="-430" y="560" width="35" height="10" as="geometry" />
        </mxCell>
        <mxCell id="1BbPbzM548uHhZmUYeWM-82" value="&amp;nbsp;0,1" style="text;strokeColor=#6c8ebf;align=center;fillColor=#dae8fc;verticalAlign=middle;rounded=0;fontSize=8;labelBackgroundColor=none;labelBorderColor=none;textShadow=0;whiteSpace=wrap;html=1;" vertex="1" parent="1">
          <mxGeometry x="-430" y="570" width="35" height="10" as="geometry" />
        </mxCell>
        <mxCell id="1BbPbzM548uHhZmUYeWM-83" value="uv:" style="text;strokeColor=#9673a6;align=center;fillColor=#e1d5e7;verticalAlign=middle;rounded=0;fontSize=8;labelBackgroundColor=none;labelBorderColor=none;textShadow=0;whiteSpace=wrap;html=1;" vertex="1" parent="1">
          <mxGeometry x="-455" y="550" width="25" height="10" as="geometry" />
        </mxCell>
        <mxCell id="1BbPbzM548uHhZmUYeWM-84" value="t:" style="text;strokeColor=#9673a6;align=center;fillColor=#e1d5e7;html=1;verticalAlign=middle;whiteSpace=wrap;rounded=0;fontSize=8;labelBackgroundColor=none;labelBorderColor=none;textShadow=0;" vertex="1" parent="1">
          <mxGeometry x="-455" y="530" width="25" height="10" as="geometry" />
        </mxCell>
        <mxCell id="1BbPbzM548uHhZmUYeWM-87" value="&amp;nbsp;0,1,2" style="text;strokeColor=#6c8ebf;align=center;fillColor=#dae8fc;html=1;verticalAlign=middle;whiteSpace=wrap;rounded=0;fontSize=8;labelBackgroundColor=none;labelBorderColor=none;textShadow=0;" vertex="1" parent="1">
          <mxGeometry x="-430" y="530" width="35" height="10" as="geometry" />
        </mxCell>
        <mxCell id="1BbPbzM548uHhZmUYeWM-88" value="&amp;nbsp;1,1" style="text;strokeColor=#6c8ebf;align=center;fillColor=#dae8fc;verticalAlign=middle;rounded=0;fontSize=8;labelBackgroundColor=none;labelBorderColor=none;textShadow=0;whiteSpace=wrap;html=1;" vertex="1" parent="1">
          <mxGeometry x="-430" y="580" width="35" height="10" as="geometry" />
        </mxCell>
        <mxCell id="1BbPbzM548uHhZmUYeWM-89" value="" style="whiteSpace=wrap;html=1;fillColor=#ffe6cc;strokeColor=#d79b00;shadow=1;" vertex="1" parent="1">
          <mxGeometry x="-880" y="260" width="280" height="170" as="geometry" />
        </mxCell>
        <mxCell id="1BbPbzM548uHhZmUYeWM-90" value="" style="rounded=0;whiteSpace=wrap;html=1;fillColor=#E6FFCC;shadow=0;" vertex="1" parent="1">
          <mxGeometry x="-770" y="350" width="50" height="50" as="geometry" />
        </mxCell>
        <mxCell id="1BbPbzM548uHhZmUYeWM-91" value="" style="rounded=0;whiteSpace=wrap;html=1;fillColor=#E6FFCC;shadow=0;" vertex="1" parent="1">
          <mxGeometry x="-770" y="300" width="50" height="50" as="geometry" />
        </mxCell>
        <mxCell id="1BbPbzM548uHhZmUYeWM-92" value="" style="rounded=0;whiteSpace=wrap;html=1;fillColor=#E6FFCC;shadow=0;" vertex="1" parent="1">
          <mxGeometry x="-720" y="300" width="50" height="50" as="geometry" />
        </mxCell>
        <mxCell id="1BbPbzM548uHhZmUYeWM-93" value="UpToRight" style="text;strokeColor=none;align=center;fillColor=none;html=1;verticalAlign=middle;whiteSpace=wrap;rounded=0;fontSize=8;labelBackgroundColor=none;labelBorderColor=none;textShadow=0;fontColor=#666666;" vertex="1" parent="1">
          <mxGeometry x="-875" y="260" width="45" height="20" as="geometry" />
        </mxCell>
        <mxCell id="1BbPbzM548uHhZmUYeWM-94" value="a" style="text;html=1;align=center;verticalAlign=middle;whiteSpace=wrap;rounded=0;" vertex="1" parent="1">
          <mxGeometry x="-783.1" y="340" width="13.1" height="20" as="geometry" />
        </mxCell>
        <mxCell id="1BbPbzM548uHhZmUYeWM-95" value="b" style="text;html=1;align=center;verticalAlign=middle;whiteSpace=wrap;rounded=0;" vertex="1" parent="1">
          <mxGeometry x="-784.7" y="320" width="20" height="10" as="geometry" />
        </mxCell>
        <mxCell id="1BbPbzM548uHhZmUYeWM-96" value="c" style="text;html=1;align=center;verticalAlign=middle;whiteSpace=wrap;rounded=0;" vertex="1" parent="1">
          <mxGeometry x="-750" y="290" width="10" height="10" as="geometry" />
        </mxCell>
        <mxCell id="1BbPbzM548uHhZmUYeWM-97" value="d" style="text;html=1;align=center;verticalAlign=middle;whiteSpace=wrap;rounded=0;" vertex="1" parent="1">
          <mxGeometry x="-725" y="290" width="10" height="10" as="geometry" />
        </mxCell>
        <mxCell id="1BbPbzM548uHhZmUYeWM-98" value="&lt;div&gt;&lt;span style=&quot;background-color: transparent; color: light-dark(rgb(0, 0, 0), rgb(255, 255, 255));&quot;&gt;▲b,e,a&lt;/span&gt;&lt;/div&gt;" style="text;strokeColor=none;align=center;fillColor=none;html=1;verticalAlign=middle;whiteSpace=wrap;rounded=0;" vertex="1" parent="1">
          <mxGeometry x="-670" y="285" width="60" height="20" as="geometry" />
        </mxCell>
        <mxCell id="1BbPbzM548uHhZmUYeWM-99" value="▲ c,e,b" style="text;strokeColor=none;align=center;fillColor=none;html=1;verticalAlign=middle;whiteSpace=wrap;rounded=0;" vertex="1" parent="1">
          <mxGeometry x="-670" y="305" width="60" height="20" as="geometry" />
        </mxCell>
        <mxCell id="1BbPbzM548uHhZmUYeWM-101" value="" style="endArrow=none;html=1;rounded=0;fillColor=#e1d5e7;strokeColor=#9673a6;endSize=3;startSize=3;jumpSize=3;" edge="1" parent="1">
          <mxGeometry width="50" height="50" relative="1" as="geometry">
            <mxPoint x="-730" y="350" as="sourcePoint" />
            <mxPoint x="-730" y="350" as="targetPoint" />
          </mxGeometry>
        </mxCell>
        <mxCell id="1BbPbzM548uHhZmUYeWM-102" value="" style="endArrow=none;html=1;rounded=0;exitX=-0.075;exitY=0.02;exitDx=0;exitDy=0;exitPerimeter=0;fillColor=#e1d5e7;strokeColor=#9673a6;" edge="1" parent="1">
          <mxGeometry width="50" height="50" relative="1" as="geometry">
            <mxPoint x="-720.1500000000001" y="340.20000000000005" as="sourcePoint" />
            <mxPoint x="-724.7" y="340" as="targetPoint" />
            <Array as="points">
              <mxPoint x="-724.7" y="340" />
              <mxPoint x="-730" y="345.1" />
            </Array>
          </mxGeometry>
        </mxCell>
        <mxCell id="1BbPbzM548uHhZmUYeWM-103" value="" style="endArrow=none;html=1;rounded=0;exitX=1;exitY=0.5;exitDx=0;exitDy=0;fillColor=#e1d5e7;strokeColor=#9673a6;" edge="1" parent="1">
          <mxGeometry width="50" height="50" relative="1" as="geometry">
            <mxPoint x="-865" y="290" as="sourcePoint" />
            <mxPoint x="-875" y="290" as="targetPoint" />
          </mxGeometry>
        </mxCell>
        <mxCell id="1BbPbzM548uHhZmUYeWM-104" value="边缘线" style="text;strokeColor=none;align=left;fillColor=none;html=1;verticalAlign=middle;whiteSpace=wrap;rounded=0;fontSize=3;" vertex="1" parent="1">
          <mxGeometry x="-865" y="290" width="20" as="geometry" />
        </mxCell>
        <mxCell id="1BbPbzM548uHhZmUYeWM-105" value="&amp;nbsp;0,1,2" style="text;strokeColor=#6c8ebf;align=center;fillColor=#dae8fc;html=1;verticalAlign=middle;whiteSpace=wrap;rounded=0;fontSize=8;labelBackgroundColor=none;labelBorderColor=none;textShadow=0;" vertex="1" parent="1">
          <mxGeometry x="-850" y="330" width="35" height="10" as="geometry" />
        </mxCell>
        <mxCell id="1BbPbzM548uHhZmUYeWM-106" value="&amp;nbsp;1,0" style="text;strokeColor=#6c8ebf;align=center;fillColor=#dae8fc;verticalAlign=middle;rounded=0;fontSize=8;labelBackgroundColor=none;labelBorderColor=none;textShadow=0;whiteSpace=wrap;html=1;" vertex="1" parent="1">
          <mxGeometry x="-850" y="340" width="35" height="10" as="geometry" />
        </mxCell>
        <mxCell id="1BbPbzM548uHhZmUYeWM-107" value="&amp;nbsp;1,1" style="text;strokeColor=#6c8ebf;align=center;fillColor=#dae8fc;verticalAlign=middle;rounded=0;fontSize=8;labelBackgroundColor=none;labelBorderColor=none;textShadow=0;whiteSpace=wrap;html=1;" vertex="1" parent="1">
          <mxGeometry x="-850" y="350" width="35" height="10" as="geometry" />
        </mxCell>
        <mxCell id="1BbPbzM548uHhZmUYeWM-108" value="&amp;nbsp;0,0" style="text;strokeColor=#6c8ebf;align=center;fillColor=#dae8fc;verticalAlign=middle;rounded=0;fontSize=8;labelBackgroundColor=none;labelBorderColor=none;textShadow=0;whiteSpace=wrap;html=1;" vertex="1" parent="1">
          <mxGeometry x="-850" y="360" width="35" height="10" as="geometry" />
        </mxCell>
        <mxCell id="1BbPbzM548uHhZmUYeWM-109" value="uv:" style="text;strokeColor=#9673a6;align=center;fillColor=#e1d5e7;verticalAlign=middle;rounded=0;fontSize=8;labelBackgroundColor=none;labelBorderColor=none;textShadow=0;whiteSpace=wrap;html=1;" vertex="1" parent="1">
          <mxGeometry x="-875" y="340" width="25" height="10" as="geometry" />
        </mxCell>
        <mxCell id="1BbPbzM548uHhZmUYeWM-110" value="t:" style="text;strokeColor=#9673a6;align=center;fillColor=#e1d5e7;html=1;verticalAlign=middle;whiteSpace=wrap;rounded=0;fontSize=8;labelBackgroundColor=none;labelBorderColor=none;textShadow=0;" vertex="1" parent="1">
          <mxGeometry x="-875" y="330" width="25" height="10" as="geometry" />
        </mxCell>
        <mxCell id="1BbPbzM548uHhZmUYeWM-112" value="" style="endArrow=classic;html=1;rounded=0;strokeColor=default;curved=0;endSize=3;startSize=3;" edge="1" parent="1">
          <mxGeometry width="50" height="50" relative="1" as="geometry">
            <mxPoint x="-400" y="479.76000000000005" as="sourcePoint" />
            <mxPoint x="-380" y="479.76" as="targetPoint" />
          </mxGeometry>
        </mxCell>
        <mxCell id="1BbPbzM548uHhZmUYeWM-116" value="" style="edgeStyle=segmentEdgeStyle;endArrow=classic;html=1;curved=0;rounded=0;endSize=3;startSize=3;" edge="1" parent="1">
          <mxGeometry width="50" height="50" relative="1" as="geometry">
            <mxPoint x="-505" y="280" as="sourcePoint" />
            <mxPoint x="-495" y="270" as="targetPoint" />
            <Array as="points">
              <mxPoint x="-495" y="280" />
            </Array>
          </mxGeometry>
        </mxCell>
        <mxCell id="1BbPbzM548uHhZmUYeWM-118" value="" style="edgeStyle=segmentEdgeStyle;endArrow=classic;html=1;curved=0;rounded=0;endSize=3;startSize=3;entryX=0.411;entryY=0.118;entryDx=0;entryDy=0;entryPerimeter=0;" edge="1" parent="1">
          <mxGeometry width="50" height="50" relative="1" as="geometry">
            <mxPoint x="-820" y="280" as="sourcePoint" />
            <mxPoint x="-801.9200000000001" y="270.06000000000006" as="targetPoint" />
            <Array as="points">
              <mxPoint x="-820" y="270" />
            </Array>
          </mxGeometry>
        </mxCell>
        <mxCell id="1BbPbzM548uHhZmUYeWM-119" value="" style="endArrow=none;html=1;rounded=0;entryX=0.5;entryY=0;entryDx=0;entryDy=0;exitX=1;exitY=0;exitDx=0;exitDy=0;" edge="1" parent="1" source="1BbPbzM548uHhZmUYeWM-90" target="1BbPbzM548uHhZmUYeWM-91">
          <mxGeometry width="50" height="50" relative="1" as="geometry">
            <mxPoint x="-845" y="410" as="sourcePoint" />
            <mxPoint x="-795" y="360" as="targetPoint" />
          </mxGeometry>
        </mxCell>
        <mxCell id="1BbPbzM548uHhZmUYeWM-120" value="" style="endArrow=none;html=1;rounded=0;entryX=0;entryY=0.5;entryDx=0;entryDy=0;exitX=0.992;exitY=0.997;exitDx=0;exitDy=0;exitPerimeter=0;" edge="1" parent="1" source="1BbPbzM548uHhZmUYeWM-91" target="1BbPbzM548uHhZmUYeWM-91">
          <mxGeometry width="50" height="50" relative="1" as="geometry">
            <mxPoint x="-710" y="360" as="sourcePoint" />
            <mxPoint x="-747" y="310" as="targetPoint" />
          </mxGeometry>
        </mxCell>
        <mxCell id="1BbPbzM548uHhZmUYeWM-122" value="" style="endArrow=none;html=1;rounded=0;exitX=0.794;exitY=0.993;exitDx=0;exitDy=0;exitPerimeter=0;fillColor=#e1d5e7;strokeColor=#9673a6;entryX=0.781;entryY=0.953;entryDx=0;entryDy=0;entryPerimeter=0;" edge="1" parent="1">
          <mxGeometry width="50" height="50" relative="1" as="geometry">
            <mxPoint x="-730" y="350.20000000000005" as="sourcePoint" />
            <mxPoint x="-729.95" y="344.25" as="targetPoint" />
            <Array as="points" />
          </mxGeometry>
        </mxCell>
        <mxCell id="1BbPbzM548uHhZmUYeWM-123" value="" style="endArrow=none;html=1;rounded=0;entryX=0.02;entryY=0.478;entryDx=0;entryDy=0;exitX=0.5;exitY=0;exitDx=0;exitDy=0;entryPerimeter=0;" edge="1" parent="1" source="1BbPbzM548uHhZmUYeWM-91" target="1BbPbzM548uHhZmUYeWM-91">
          <mxGeometry width="50" height="50" relative="1" as="geometry">
            <mxPoint x="-710" y="360" as="sourcePoint" />
            <mxPoint x="-760" y="335" as="targetPoint" />
          </mxGeometry>
        </mxCell>
        <mxCell id="1BbPbzM548uHhZmUYeWM-124" value="▲&amp;nbsp;d,e,c" style="text;strokeColor=none;align=center;fillColor=none;html=1;verticalAlign=middle;whiteSpace=wrap;rounded=0;" vertex="1" parent="1">
          <mxGeometry x="-670" y="325" width="60" height="20" as="geometry" />
        </mxCell>
        <mxCell id="1BbPbzM548uHhZmUYeWM-125" value="e" style="text;html=1;align=center;verticalAlign=middle;whiteSpace=wrap;rounded=0;" vertex="1" parent="1">
          <mxGeometry x="-720" y="350" width="10" height="10" as="geometry" />
        </mxCell>
        <mxCell id="1BbPbzM548uHhZmUYeWM-126" value="" style="whiteSpace=wrap;html=1;fillColor=#ffe6cc;strokeColor=#d79b00;shadow=1;" vertex="1" parent="1">
          <mxGeometry x="-880" y="460" width="380" height="170" as="geometry" />
        </mxCell>
        <mxCell id="1BbPbzM548uHhZmUYeWM-127" value="" style="rounded=0;whiteSpace=wrap;html=1;fillColor=#E6FFCC;shadow=0;" vertex="1" parent="1">
          <mxGeometry x="-779.85" y="520" width="50" height="50" as="geometry" />
        </mxCell>
        <mxCell id="1BbPbzM548uHhZmUYeWM-128" value="" style="rounded=0;whiteSpace=wrap;html=1;fillColor=#E6FFCC;shadow=0;" vertex="1" parent="1">
          <mxGeometry x="-729.85" y="520" width="50" height="50" as="geometry" />
        </mxCell>
        <mxCell id="1BbPbzM548uHhZmUYeWM-129" value="" style="rounded=0;whiteSpace=wrap;html=1;fillColor=#E6FFCC;shadow=0;" vertex="1" parent="1">
          <mxGeometry x="-680.15" y="520" width="50" height="50" as="geometry" />
        </mxCell>
        <mxCell id="1BbPbzM548uHhZmUYeWM-130" value="RighToRight" style="text;strokeColor=none;align=center;fillColor=none;html=1;verticalAlign=middle;whiteSpace=wrap;rounded=0;fontSize=8;labelBackgroundColor=none;labelBorderColor=none;textShadow=0;fontColor=#666666;" vertex="1" parent="1">
          <mxGeometry x="-875" y="470" width="45" height="20" as="geometry" />
        </mxCell>
        <mxCell id="1BbPbzM548uHhZmUYeWM-131" value="a" style="text;html=1;align=center;verticalAlign=middle;whiteSpace=wrap;rounded=0;" vertex="1" parent="1">
          <mxGeometry x="-739.85" y="510" width="20" height="10" as="geometry" />
        </mxCell>
        <mxCell id="1BbPbzM548uHhZmUYeWM-132" value="b" style="text;html=1;align=center;verticalAlign=middle;whiteSpace=wrap;rounded=0;" vertex="1" parent="1">
          <mxGeometry x="-739.85" y="570" width="20" height="10" as="geometry" />
        </mxCell>
        <mxCell id="1BbPbzM548uHhZmUYeWM-133" value="c" style="text;html=1;align=center;verticalAlign=middle;whiteSpace=wrap;rounded=0;" vertex="1" parent="1">
          <mxGeometry x="-684.85" y="570" width="10" height="10" as="geometry" />
        </mxCell>
        <mxCell id="1BbPbzM548uHhZmUYeWM-134" value="d" style="text;html=1;align=center;verticalAlign=middle;whiteSpace=wrap;rounded=0;" vertex="1" parent="1">
          <mxGeometry x="-684.85" y="510" width="10" height="10" as="geometry" />
        </mxCell>
        <mxCell id="1BbPbzM548uHhZmUYeWM-135" value="&amp;nbsp;▲a,d,c" style="text;strokeColor=none;align=center;fillColor=none;html=1;verticalAlign=middle;whiteSpace=wrap;rounded=0;" vertex="1" parent="1">
          <mxGeometry x="-610" y="510" width="60" height="20" as="geometry" />
        </mxCell>
        <mxCell id="1BbPbzM548uHhZmUYeWM-136" value="▲ a,c,d" style="text;strokeColor=none;align=center;fillColor=none;html=1;verticalAlign=middle;whiteSpace=wrap;rounded=0;" vertex="1" parent="1">
          <mxGeometry x="-610" y="560" width="60" height="20" as="geometry" />
        </mxCell>
        <mxCell id="1BbPbzM548uHhZmUYeWM-137" value="" style="endArrow=none;html=1;rounded=0;entryX=0;entryY=1;entryDx=0;entryDy=0;exitX=0;exitY=0;exitDx=0;exitDy=0;" edge="1" parent="1" source="1BbPbzM548uHhZmUYeWM-128" target="1BbPbzM548uHhZmUYeWM-129">
          <mxGeometry width="50" height="50" relative="1" as="geometry">
            <mxPoint x="-729.85" y="571.35" as="sourcePoint" />
            <mxPoint x="-630.15" y="620" as="targetPoint" />
          </mxGeometry>
        </mxCell>
        <mxCell id="1BbPbzM548uHhZmUYeWM-138" value="" style="endArrow=none;html=1;rounded=0;fillColor=#e1d5e7;strokeColor=#9673a6;exitX=1.007;exitY=0.807;exitDx=0;exitDy=0;exitPerimeter=0;" edge="1" parent="1" source="1BbPbzM548uHhZmUYeWM-127">
          <mxGeometry width="50" height="50" relative="1" as="geometry">
            <mxPoint x="-719.85" y="560" as="sourcePoint" />
            <mxPoint x="-679.85" y="560" as="targetPoint" />
          </mxGeometry>
        </mxCell>
        <mxCell id="1BbPbzM548uHhZmUYeWM-139" value="" style="endArrow=none;html=1;rounded=0;exitX=1;exitY=0.5;exitDx=0;exitDy=0;fillColor=#e1d5e7;strokeColor=#9673a6;" edge="1" parent="1">
          <mxGeometry width="50" height="50" relative="1" as="geometry">
            <mxPoint x="-865" y="500" as="sourcePoint" />
            <mxPoint x="-875" y="500" as="targetPoint" />
          </mxGeometry>
        </mxCell>
        <mxCell id="1BbPbzM548uHhZmUYeWM-140" value="边缘线" style="text;strokeColor=none;align=left;fillColor=none;html=1;verticalAlign=middle;whiteSpace=wrap;rounded=0;fontSize=3;" vertex="1" parent="1">
          <mxGeometry x="-865" y="500" width="20" as="geometry" />
        </mxCell>
        <mxCell id="1BbPbzM548uHhZmUYeWM-141" value="&amp;nbsp;0,2,3" style="text;strokeColor=#6c8ebf;align=center;fillColor=#dae8fc;html=1;verticalAlign=middle;whiteSpace=wrap;rounded=0;fontSize=8;labelBackgroundColor=none;labelBorderColor=none;textShadow=0;" vertex="1" parent="1">
          <mxGeometry x="-850" y="540" width="35" height="10" as="geometry" />
        </mxCell>
        <mxCell id="1BbPbzM548uHhZmUYeWM-142" value="&amp;nbsp;1,0" style="text;strokeColor=#6c8ebf;align=center;fillColor=#dae8fc;verticalAlign=middle;rounded=0;fontSize=8;labelBackgroundColor=none;labelBorderColor=none;textShadow=0;whiteSpace=wrap;html=1;" vertex="1" parent="1">
          <mxGeometry x="-850" y="550" width="35" height="10" as="geometry" />
        </mxCell>
        <mxCell id="1BbPbzM548uHhZmUYeWM-143" value="&amp;nbsp;0,0" style="text;strokeColor=#6c8ebf;align=center;fillColor=#dae8fc;verticalAlign=middle;rounded=0;fontSize=8;labelBackgroundColor=none;labelBorderColor=none;textShadow=0;whiteSpace=wrap;html=1;" vertex="1" parent="1">
          <mxGeometry x="-850" y="560" width="35" height="10" as="geometry" />
        </mxCell>
        <mxCell id="1BbPbzM548uHhZmUYeWM-144" value="&amp;nbsp;0,1" style="text;strokeColor=#6c8ebf;align=center;fillColor=#dae8fc;verticalAlign=middle;rounded=0;fontSize=8;labelBackgroundColor=none;labelBorderColor=none;textShadow=0;whiteSpace=wrap;html=1;" vertex="1" parent="1">
          <mxGeometry x="-850" y="570" width="35" height="10" as="geometry" />
        </mxCell>
        <mxCell id="1BbPbzM548uHhZmUYeWM-145" value="uv:" style="text;strokeColor=#9673a6;align=center;fillColor=#e1d5e7;verticalAlign=middle;rounded=0;fontSize=8;labelBackgroundColor=none;labelBorderColor=none;textShadow=0;whiteSpace=wrap;html=1;" vertex="1" parent="1">
          <mxGeometry x="-875" y="550" width="25" height="10" as="geometry" />
        </mxCell>
        <mxCell id="1BbPbzM548uHhZmUYeWM-146" value="t:" style="text;strokeColor=#9673a6;align=center;fillColor=#e1d5e7;html=1;verticalAlign=middle;whiteSpace=wrap;rounded=0;fontSize=8;labelBackgroundColor=none;labelBorderColor=none;textShadow=0;" vertex="1" parent="1">
          <mxGeometry x="-875" y="530" width="25" height="10" as="geometry" />
        </mxCell>
        <mxCell id="1BbPbzM548uHhZmUYeWM-147" value="&amp;nbsp;0,1,2" style="text;strokeColor=#6c8ebf;align=center;fillColor=#dae8fc;html=1;verticalAlign=middle;whiteSpace=wrap;rounded=0;fontSize=8;labelBackgroundColor=none;labelBorderColor=none;textShadow=0;" vertex="1" parent="1">
          <mxGeometry x="-850" y="530" width="35" height="10" as="geometry" />
        </mxCell>
        <mxCell id="1BbPbzM548uHhZmUYeWM-148" value="&amp;nbsp;1,1" style="text;strokeColor=#6c8ebf;align=center;fillColor=#dae8fc;verticalAlign=middle;rounded=0;fontSize=8;labelBackgroundColor=none;labelBorderColor=none;textShadow=0;whiteSpace=wrap;html=1;" vertex="1" parent="1">
          <mxGeometry x="-850" y="580" width="35" height="10" as="geometry" />
        </mxCell>
        <mxCell id="1BbPbzM548uHhZmUYeWM-149" value="" style="endArrow=classic;html=1;rounded=0;strokeColor=default;curved=0;endSize=3;startSize=3;" edge="1" parent="1">
          <mxGeometry width="50" height="50" relative="1" as="geometry">
            <mxPoint x="-820" y="479.76000000000005" as="sourcePoint" />
            <mxPoint x="-800" y="479.76" as="targetPoint" />
          </mxGeometry>
        </mxCell>
        <mxCell id="1BbPbzM548uHhZmUYeWM-150" value="" style="rounded=0;whiteSpace=wrap;html=1;fillColor=#E6FFCC;shadow=0;" vertex="1" parent="1">
          <mxGeometry x="-210.14999999999998" y="520" width="50" height="50" as="geometry" />
        </mxCell>
      </root>
    </mxGraphModel>
  </diagram>
</mxfile>
